<svg width="992" height="1060" viewBox="0 0 992 1060" fill="none" xmlns="http://www.w3.org/2000/svg">
<g clip-path="url(#clip0_173_14)">
<path d="M480.995 59.371C475.93 55.8689 469.978 54 463.89 54C457.801 54 451.849 55.8689 446.784 59.371C356.941 121.466 238.434 182.635 90.9865 197.904C83.3786 198.688 76.3235 202.375 71.1916 208.248C66.0598 214.122 63.2175 221.762 63.2168 229.686V501.193C63.2168 625.128 128.681 730.218 208.106 806.112C287.378 881.878 384.926 932.954 458.219 947.2L463.89 948.286L469.561 947.2C542.853 932.954 640.401 881.878 719.673 806.112C799.099 730.218 864.562 625.128 864.562 501.193V229.686C864.563 221.767 861.725 214.131 856.599 208.258C851.474 202.386 844.426 198.696 836.824 197.904C689.345 182.635 570.838 121.466 480.995 59.371Z" fill="url(#paint0_radial_173_14)"/>
<path d="M363.902 438.527C363.902 550.91 455.001 642.009 567.384 642.009C679.768 642.009 770.867 550.91 770.867 438.527C770.867 326.144 679.768 235.045 567.384 235.045C455.001 235.045 363.902 326.144 363.902 438.527Z" fill="#00A6ED"/>
<path d="M676.208 331.332C687.44 350.806 684.734 373.412 670.124 381.837C655.534 390.261 634.576 381.328 623.344 361.855C612.111 342.381 614.838 319.775 629.428 311.35C644.038 302.926 664.976 311.859 676.229 331.332" fill="white"/>
<path d="M343.555 438.527C343.555 562.142 443.77 662.357 567.385 662.357C614.084 662.357 657.446 648.052 693.341 623.594C690.481 636.173 690.856 649.271 694.433 661.665C698.009 674.06 704.669 685.345 713.79 694.467L778.538 759.215C792.9 773.273 812.227 781.098 832.323 780.991C852.42 780.884 871.663 772.854 885.873 758.643C900.084 744.432 908.115 725.19 908.222 705.093C908.329 684.997 900.503 665.669 886.445 651.308L821.697 586.56C812.649 577.509 801.469 570.879 789.188 567.281C776.906 563.682 763.916 563.231 751.414 565.968C777.396 528.554 791.287 484.077 791.215 438.527C791.215 314.911 691 214.696 567.385 214.696C443.77 214.696 343.555 314.911 343.555 438.527ZM750.519 438.527C750.519 462.576 745.782 486.39 736.579 508.609C727.375 530.828 713.886 551.016 696.88 568.022C679.875 585.028 659.686 598.517 637.467 607.72C615.249 616.924 591.435 621.661 567.385 621.661C543.336 621.661 519.522 616.924 497.303 607.72C475.084 598.517 454.895 585.028 437.89 568.022C420.884 551.016 407.395 530.828 398.191 508.609C388.988 486.39 384.251 462.576 384.251 438.527C384.251 389.957 403.546 343.376 437.89 309.032C472.234 274.687 518.815 255.393 567.385 255.393C615.955 255.393 662.536 274.687 696.88 309.032C731.225 343.376 750.519 389.957 750.519 438.527Z" fill="#533566"/>
</g>
<defs>
<radialGradient id="paint0_radial_173_14" cx="0" cy="0" r="1" gradientUnits="userSpaceOnUse" gradientTransform="translate(-251.589 -449.05) rotate(54.6159) scale(2125.26 1874.7)">
<stop offset="0.338" stop-color="#0FAFFF"/>
<stop offset="0.529" stop-color="#367AF2"/>
<stop offset="0.682" stop-color="#5750E2"/>
<stop offset="0.861" stop-color="#CC23D1"/>
</radialGradient>
<clipPath id="clip0_173_14">
<rect width="954" height="954" fill="white" transform="translate(0 54)"/>
</clipPath>
</defs>
</svg>
